<svg width="95" height="108" viewBox="0 0 95 108" fill="none" xmlns="http://www.w3.org/2000/svg">
<g filter="url(#filter0_d)">
<circle cx="54" cy="47" r="17" fill="#56BE65"/>
<circle cx="54" cy="47" r="17" stroke="white" stroke-width="2.125"/>
</g>
<path d="M53.526 51.25C53.4207 51.25 53.3312 51.2129 53.2574 51.1386C53.1837 51.0643 53.1468 50.9741 53.1468 50.868V47.764H50.1292C50.0239 47.764 49.9343 47.7269 49.8606 47.6526C49.7869 47.5783 49.75 47.4881 49.75 47.382V46.5225C49.75 46.4164 49.7869 46.3262 49.8606 46.2519C49.9343 46.1776 50.0239 46.1404 50.1292 46.1404H53.1468V43.132C53.1468 43.0153 53.1837 42.9224 53.2574 42.8535C53.3312 42.7845 53.4207 42.75 53.526 42.75H54.474C54.5898 42.75 54.682 42.7845 54.7505 42.8535C54.8189 42.9224 54.8532 43.0153 54.8532 43.132V46.1404H57.8708C57.9761 46.1404 58.0657 46.1776 58.1394 46.2519C58.2131 46.3262 58.25 46.4164 58.25 46.5225V47.382C58.25 47.4881 58.2158 47.5783 58.1473 47.6526C58.0788 47.7269 57.9867 47.764 57.8708 47.764H54.8532V50.868C54.8532 50.9741 54.8189 51.0643 54.7505 51.1386C54.682 51.2129 54.5898 51.25 54.474 51.25H53.526Z" fill="#FEFEFE"/>
<defs>
<filter id="filter0_d" x="0.520836" y="0.604169" width="106.958" height="106.958" filterUnits="userSpaceOnUse" color-interpolation-filters="sRGB">
<feFlood flood-opacity="0" result="BackgroundImageFix"/>
<feColorMatrix in="SourceAlpha" type="matrix" values="0 0 0 0 0 0 0 0 0 0 0 0 0 0 0 0 0 0 127 0"/>
<feOffset dy="7.08333"/>
<feGaussianBlur stdDeviation="17.7083"/>
<feColorMatrix type="matrix" values="0 0 0 0 0.0984059 0 0 0 0 0.197583 0 0 0 0 0.276834 0 0 0 0.15 0"/>
<feBlend mode="normal" in2="BackgroundImageFix" result="effect1_dropShadow"/>
<feBlend mode="normal" in="SourceGraphic" in2="effect1_dropShadow" result="shape"/>
</filter>
</defs>
</svg>
